<svg height="512" viewBox="0 0 512 512" width="512" xmlns="http://www.w3.org/2000/svg"><g id="Out_line" data-name="Out line"><path d="m378.52979 295.58936a8.00011 8.00011 0 0 0 5.47021-7.58936v-64a8 8 0 0 0 -10.52979-7.58936l-11.3341 3.778a112.02633 112.02633 0 0 0 -208.06751-10.64396l-20.59839 6.866a8.00011 8.00011 0 0 0 -5.47021 7.58932v64a8 8 0 0 0 10.52979 7.58936l11.3341-3.778a112.02633 112.02633 0 0 0 208.06751 10.64396zm-122.52979-135.58936a95.87251 95.87251 0 0 1 90.91772 65.11914 120.67986 120.67986 0 0 1 -87.34008-8.27441 136.526 136.526 0 0 0 -84.44458-12.62165 95.74058 95.74058 0 0 1 80.86694-44.22308zm-112 69.76611 15.61816-5.20605a120.7701 120.7701 0 0 1 92.8042 6.59521 136.65868 136.65868 0 0 0 105.01905 7.46338l10.55859-3.51953v47.13477l-15.61816 5.20605a120.76571 120.76571 0 0 1 -92.8042-6.59521 136.68485 136.68485 0 0 0 -105.019-7.46338l-10.55864 3.51953zm112 122.23389a95.87236 95.87236 0 0 1 -90.9176-65.119 120.68388 120.68388 0 0 1 87.34 8.27429 136.05891 136.05891 0 0 0 84.4526 12.60887 95.74051 95.74051 0 0 1 -80.875 44.23584z"/><path d="m208 96h32v16h-32z"/><path d="m272 96h32v16h-32z"/><path d="m408 96h-72v16h64v64h16v-72a7.99977 7.99977 0 0 0 -8-8z"/><path d="m400 208h16v32h-16z"/><path d="m400 272h16v32h-16z"/><path d="m400 400h-64v16h72a7.99977 7.99977 0 0 0 8-8v-72h-16z"/><path d="m272 400h32v16h-32z"/><path d="m208 400h32v16h-32z"/><path d="m112 336h-16v72a7.99977 7.99977 0 0 0 8 8h72v-16h-64z"/><path d="m96 272h16v32h-16z"/><path d="m96 208h16v32h-16z"/><path d="m112 112h64v-16h-72a7.99977 7.99977 0 0 0 -8 8v72h16z"/><path d="m72 104h-48a7.99977 7.99977 0 0 0 -8 8v288a7.99977 7.99977 0 0 0 8 8h48a7.99977 7.99977 0 0 0 8-8v-288a7.99977 7.99977 0 0 0 -8-8zm-40 288v-272h32v16h-16v16h16v16h-16v16h16v16h-16v16h16v16h-16v16h16v16h-16v16h16v16h-16v16h16v16h-16v16h16v16h-16v16h16v16z"/><path d="m488 104h-32a7.99977 7.99977 0 0 0 -8 8v40h-16a7.99977 7.99977 0 0 0 -8 8v64h16v-56h8v208a8.00164 8.00164 0 0 0 .57227 2.97119l16 40a7.99991 7.99991 0 0 0 14.85546 0l16-40a8.00164 8.00164 0 0 0 .57227-2.97119v-264a7.99977 7.99977 0 0 0 -8-8zm-24 16h16v32h-16zm8 274.45947-8-20v-206.45947h16v206.45947z"/></g></svg>